PathFileType  4	(X/Y/Z) C:\Users\antoi\Documents\MyRepositories\mobilecap\ResultsAnalysis
DataRate	CameraRate	NumFrames	NumMarkers	Units	OrigDataRate	OrigDataStartFrame	OrigNumFrames
100.0	100.0	4	51	mm	100.0	162	184
Frame#	Time	r_knee			r_shank_antsup			r_ankle			r_calc			r_5meta			r_toe			L_knee			L_shank_antsup			L_ankle			L_calc			L_5meta			L_toe			r_sh2			r_sh3			r_sh4			L_sh2			L_sh3			r_thigh1			r_thigh2			r_thigh3			r_thigh4			r_thigh5			L_thigh1			L_thigh2			L_thigh3			L_thigh4			r.ASIS			r.PSIS			L.ASIS			L.PSIS			C7			R_Shoulder			L_Shoulder			R_Sternum			L_Sternum			R_humerus			R_elbow_med			R_elbow_lat			R_forearm			R_wrist_radius			R_wrist_ulna			L_humerus			L_elbow_med			L_elbow_lat			L_forearm			L_wrist_radius			L_wrist_ulna			R_HJC			L_HJC			R_HJC_reg			L_HJC_reg			
		X1	Y1	Z1	X2	Y2	Z2	X3	Y3	Z3	X4	Y4	Z4	X5	Y5	Z5	X6	Y6	Z6	X7	Y7	Z7	X8	Y8	Z8	X9	Y9	Z9	X10	Y10	Z10	X11	Y11	Z11	X12	Y12	Z12	X13	Y13	Z13	X14	Y14	Z14	X15	Y15	Z15	X16	Y16	Z16	X17	Y17	Z17	X18	Y18	Z18	X19	Y19	Z19	X20	Y20	Z20	X21	Y21	Z21	X22	Y22	Z22	X23	Y23	Z23	X24	Y24	Z24	X25	Y25	Z25	X26	Y26	Z26	X27	Y27	Z27	X28	Y28	Z28	X29	Y29	Z29	X30	Y30	Z30	X31	Y31	Z31	X32	Y32	Z32	X33	Y33	Z33	X34	Y34	Z34	X35	Y35	Z35	X36	Y36	Z36	X37	Y37	Z37	X38	Y38	Z38	X39	Y39	Z39	X40	Y40	Z40	X41	Y41	Z41	X42	Y42	Z42	X43	Y43	Z43	X44	Y44	Z44	X45	Y45	Z45	X46	Y46	Z46	X47	Y47	Z47	X48	Y48	Z48	X49	Y49	Z49	X50	Y50	Z50	X51	Y51	Z51	

162	1.61000000	1432.85739	594.95281	-107.14666	1484.50908	453.69921	-123.03362	1480.18311	88.58831	-156.58982	1430.59644	66.08212	-224.85739	1623.26676	44.67758	-130.33181	1659.77799	83.36288	-177.55317	1178.22700	601.10777	-382.97471	1125.26092	400.54360	-349.97380	906.96187	173.92292	-335.75772	839.98290	178.62002	-273.97987	994.61249	33.71294	-344.65001	1038.05721	51.89470	-284.50561	1500.02561	342.54492	-138.54309	1420.78477	436.69753	-84.97773	1432.10692	324.42803	-92.06287	1070.82969	437.21153	-407.33227	1004.11308	342.45912	-383.56576	1396.91377	878.02597	-55.36998	1436.63338	774.83666	-66.84806	1383.45983	731.25560	-65.58295	1291.18072	845.07862	-86.69143	1332.35022	735.31164	-88.64658	1229.36454	902.79226	-415.92537	1190.82148	772.40702	-411.86876	1333.83382	868.92285	-397.52615	1295.28645	740.34718	-391.74579	1392.12835	1151.35378	-91.16345	1212.09937	1191.91938	-187.23138	1404.01949	1136.81569	-369.44957	1218.80527	1194.85132	-279.88356	1336.72472	1673.11268	-275.24253	1385.57382	1623.96320	-92.41058	1409.80574	1609.77087	-442.62012	1456.31582	1564.72583	-230.00538	1463.14611	1562.30679	-286.91599	1289.15181	1378.15269	-2.22177	1171.40886	1292.95097	-34.30407	1184.97181	1319.38721	34.05560	1242.81245	1113.58918	82.51553	1260.30874	1020.32402	90.15096	1230.19849	1024.57369	111.81696	1391.16526	1311.23082	-491.15641	1288.55315	1245.55687	-459.42337	1322.59384	1237.23435	-527.70456	1393.56988	1043.09898	-533.66658	1416.71268	966.40569	-520.22866	1394.09453	968.59622	-546.16181	1309.16272	1060.56678	-129.59399	1310.20496	1056.88274	-327.04055	1318.23524	1059.33806	-139.12340	1331.52778	1065.15105	-322.62608	
163	1.62000000	1444.03472	596.01180	-106.48006	1493.80075	453.65319	-122.59600	1481.80859	88.77907	-156.28013	1431.70077	67.09424	-224.35075	1624.65973	42.47114	-130.27630	1662.04233	80.30098	-177.66922	1193.68660	599.50143	-384.70646	1137.12190	399.70771	-352.19415	913.54468	178.44099	-337.26872	846.83814	185.95814	-275.59288	995.67482	34.73484	-344.62469	1039.64605	52.12809	-284.70100	1507.30385	342.32840	-138.19288	1430.48977	437.76824	-83.55185	1439.80976	325.29087	-90.59258	1082.88813	438.13623	-408.65310	1014.01213	345.11668	-384.95057	1409.17805	879.77877	-55.09563	1448.96735	776.54381	-66.35393	1395.77922	732.89680	-64.59213	1303.27761	846.48702	-85.31314	1344.79952	736.71823	-87.42891	1240.68802	901.70831	-416.02815	1203.82658	770.70855	-412.26821	1345.61865	868.92625	-399.26384	1308.66228	739.76289	-393.99171	1404.31151	1152.52841	-91.94056	1223.31770	1192.64704	-187.07434	1413.79920	1137.42798	-370.26389	1229.36089	1195.10363	-279.91457	1346.89784	1674.41073	-270.61432	1396.29029	1623.07060	-88.67959	1419.60192	1613.36413	-439.25721	1466.76155	1565.69862	-227.07448	1473.50773	1563.93325	-283.98311	1301.34259	1375.95538	-0.67096	1183.98365	1290.49785	-33.30778	1197.32229	1316.42996	35.04072	1255.38043	1110.27342	82.12842	1272.97678	1016.99492	89.10732	1242.82101	1021.08452	110.66162	1399.41989	1315.04794	-489.45813	1296.56391	1249.91234	-457.45973	1329.98263	1241.65134	-525.85262	1398.72225	1046.86509	-533.80457	1420.80509	969.61213	-521.11470	1398.26284	972.36676	-547.12591	1321.05777	1061.55135	-129.68157	1320.68453	1057.31961	-327.11881	1329.89277	1060.70876	-138.91067	1341.85193	1065.57156	-322.52231	
164	1.63000000	1455.21286	597.20485	-105.95519	1502.75416	453.67598	-122.32378	1483.07816	89.15960	-156.02084	1432.49161	67.97896	-223.81527	1625.77160	41.03370	-130.23904	1663.81563	77.97867	-177.81779	1210.20017	597.74582	-386.48584	1149.94928	398.94964	-354.21983	921.02766	183.44963	-338.96128	854.57588	194.00949	-277.49984	997.05008	36.24453	-344.67084	1041.57607	52.65930	-284.95847	1514.28695	342.28430	-137.97391	1440.05842	439.01389	-82.15730	1447.30943	326.35889	-89.13738	1096.22518	439.01604	-410.09600	1025.16212	347.85679	-386.55892	1421.12844	881.58295	-54.60144	1461.04256	778.33571	-65.67913	1407.82361	734.60295	-63.68178	1315.17274	847.98369	-84.03936	1356.91084	738.25895	-86.29934	1252.36191	900.43345	-416.11494	1217.49258	768.67783	-412.91438	1357.69520	868.99848	-401.02129	1322.66565	739.21044	-396.32044	1416.34441	1154.15376	-92.55331	1234.43514	1193.60019	-186.95009	1423.39295	1138.19145	-371.02515	1239.80970	1195.58601	-279.96386	1357.02107	1675.83141	-266.09391	1407.00098	1622.39054	-85.08682	1429.39874	1617.18638	-435.92780	1477.16964	1566.85656	-224.22370	1483.80395	1565.69987	-281.12380	1313.64574	1374.03046	0.76914	1196.63578	1288.32418	-32.38111	1209.75374	1313.73656	35.94340	1268.12047	1107.27219	81.60808	1285.76502	1013.93353	87.98399	1255.54887	1017.84314	109.45600	1407.64563	1319.17915	-487.79761	1304.56593	1254.64752	-455.45863	1337.22823	1246.39182	-523.93500	1403.88691	1051.02303	-533.86555	1424.95772	973.21118	-521.92095	1402.45749	976.51792	-547.99651	1332.83421	1062.90590	-129.62854	1331.07559	1057.92714	-327.03943	1341.49930	1062.24269	-138.54661	1352.12155	1066.16821	-322.35220	
165	1.64000000	1466.10478	598.35058	-105.65333	1511.21165	453.65897	-122.28219	1484.12780	89.66086	-155.87464	1433.06129	68.75652	-223.31435	1626.65115	40.14920	-130.24458	1665.23324	76.14554	-178.02464	1227.64247	595.89534	-388.27767	1163.64868	398.31802	-355.97249	929.36823	188.96164	-340.79985	863.20377	202.75520	-279.65691	998.79300	38.35262	-344.81233	1043.90669	53.59805	-285.32360	1520.90055	342.29387	-137.94470	1449.22539	440.27113	-81.02498	1454.40699	327.47634	-87.95873	1110.77394	439.87683	-411.63804	1037.49164	350.67007	-388.33509	1432.65214	883.20175	-53.98741	1472.61648	779.92649	-64.93459	1419.30171	736.16587	-62.99129	1326.68276	849.48780	-83.02260	1368.38999	739.77020	-85.42484	1264.35715	898.95653	-416.15858	1231.75170	766.34458	-413.81615	1370.04387	869.12894	-402.77745	1337.25863	738.71663	-398.67868	1428.30427	1156.05843	-93.01805	1245.49503	1194.69408	-186.76827	1432.84845	1139.09032	-371.78951	1250.17123	1196.24595	-279.93544	1367.03829	1677.30713	-261.69442	1417.68568	1621.86965	-81.63427	1439.15065	1621.13402	-432.60817	1487.50991	1568.13425	-221.46131	1493.99259	1567.54051	-278.35078	1325.97928	1372.34373	2.11696	1209.27025	1286.42752	-31.50741	1222.22353	1311.29185	36.82670	1280.99923	1104.59008	80.93376	1298.74053	1011.17841	86.79081	1268.41124	1014.85732	108.20690	1415.80302	1323.54071	-486.18775	1312.52270	1259.69771	-453.48119	1344.33705	1251.39892	-522.01965	1409.09715	1055.50386	-533.85076	1429.21293	977.15362	-522.62633	1406.72076	981.00515	-548.73374	1344.56360	1064.48765	-129.47296	1341.38958	1058.68066	-326.84245	1353.10817	1063.82739	-138.07021	1362.34298	1066.89225	-322.17390	
